<?xml version="1.0" standalone="no"?>
<!DOCTYPE svg PUBLIC "-//W3C//DTD SVG 20010904//EN"
 "http://www.w3.org/TR/2001/REC-SVG-20010904/DTD/svg10.dtd">
<svg version="1.0" xmlns="http://www.w3.org/2000/svg"
 width="401.000000pt" height="401.000000pt" viewBox="0 0 401.000000 401.000000"
 preserveAspectRatio="xMidYMid meet">
<g transform="translate(0.000000,401.000000) scale(0.100000,-0.100000)"
fill="#000000" stroke="none">
<path d="M10 2010 l0 -2000 2000 0 2000 0 0 2000 0 2000 -2000 0 -2000 0 0
-2000z m2082 1135 c20 -13 44 -42 54 -63 16 -38 19 -40 87 -52 402 -72 758
-379 896 -772 76 -218 87 -471 31 -687 l-19 -74 27 -35 c38 -50 43 -143 10
-191 -32 -48 -68 -72 -116 -78 -57 -8 -123 19 -157 63 l-26 34 -464 0 -465 0
-2 369 -3 369 -153 -269 c-150 -264 -154 -269 -185 -269 -30 0 -35 6 -90 103
-31 56 -100 178 -152 272 l-95 169 0 -434 1 -435 31 -20 c65 -42 87 -139 49
-214 -34 -66 -111 -99 -186 -80 -102 26 -154 137 -109 232 l16 33 -46 66
c-139 198 -208 423 -209 673 -1 259 58 455 200 668 173 261 451 447 756 507
49 10 60 16 68 38 36 95 166 135 251 77z"/>
<path d="M1941 3054 c-24 -30 -26 -43 -10 -77 11 -24 47 -47 73 -47 7 0 25 9
40 21 33 26 36 79 6 109 -30 30 -83 27 -109 -6z"/>
<path d="M1730 2926 c-193 -52 -358 -146 -496 -285 -316 -316 -413 -766 -255
-1178 47 -120 154 -293 183 -293 4 0 8 73 8 163 0 89 3 327 7 530 l6 367 41 0
41 -1 169 -304 c92 -168 171 -305 175 -305 3 0 83 138 176 305 l170 305 43 0
42 0 0 -425 0 -425 417 2 c409 3 418 3 421 23 5 27 48 82 75 97 12 6 40 14 62
17 l40 6 17 69 c64 253 36 510 -81 751 -141 289 -407 505 -720 584 -107 27
-115 26 -129 -3 -17 -38 -74 -75 -125 -82 -59 -8 -127 23 -157 72 -12 19 -27
34 -33 34 -7 -1 -50 -11 -97 -24z"/>
<path d="M2983 1404 c-20 -20 -24 -31 -19 -57 12 -62 70 -85 120 -46 19 15 26
30 26 55 0 70 -76 99 -127 48z"/>
<path d="M1175 1079 c-80 -45 -46 -146 48 -140 27 2 57 38 57 70 0 55 -60 95
-105 70z"/>
</g>
</svg>
