<svg width="261" height="40" viewBox="0 0 261 40" fill="none" xmlns="http://www.w3.org/2000/svg">
<g clip-path="url(#clip0)">
<path d="M69.6777 14.8728C69.6777 12.2921 69.7456 9.77937 69.7456 9.77937H69.6777C69.6777 9.77937 69.0665 11.0018 67.9799 12.9033L65.8067 16.8422H64.5164L62.2753 12.9033C61.1208 10.9339 60.5775 9.77937 60.5775 9.71146H60.5096C60.5096 9.71146 60.5775 12.2242 60.5775 14.8048V20.2378H58.3364V5.97632H60.7133L65.1276 13.8541H65.1955L69.6098 5.97632H71.9188V20.2378H69.6777V14.8728Z" fill="#911938"/>
<path d="M77.6235 6.04419H87.4707V8.14945H79.8646V11.8846H85.705V13.9899H79.8646V18.2004H87.5386V20.3056H77.6235V6.04419Z" fill="#911938"/>
<path d="M97.5893 14.9407C97.3176 14.9407 96.7743 14.9407 96.5027 14.9407H95.0765V20.2378H92.8354V5.97632H97.5214C100.917 5.97632 102.954 7.67411 102.954 10.5264C102.954 12.6996 101.8 13.9899 99.8983 14.4653L103.362 20.1699H100.645L97.5893 14.9407ZM97.7251 13.175C99.5587 13.175 100.713 12.4958 100.713 10.7301C100.713 9.03235 99.5587 8.14949 97.6572 8.14949H95.0765V13.2429H97.7251V13.175Z" fill="#911938"/>
<path d="M108.184 6.04419H110.425V18.2004H117.555V20.3056H108.184V6.04419Z" fill="#911938"/>
<path d="M122.581 6.04419H124.822V20.3056H122.581V6.04419Z" fill="#911938"/>
<path d="M132.767 9.71142C132.7 9.71142 132.767 11.4092 132.767 13.2428V20.3056H130.526V6.04419H132.835L140.441 16.5026H140.509C140.509 16.5026 140.441 14.8048 140.441 13.1749V6.04419H142.683V20.3056H140.374L132.767 9.71142Z" fill="#911938"/>
<path d="M148.727 6.04419H149.542V19.5586H157.556V20.3056H148.727V6.04419Z" fill="#911938"/>
<path d="M164.686 15.7556L162.717 20.2378H161.902L168.218 5.97632H169.033L175.348 20.2378H174.533L172.564 15.7556H164.686ZM170.255 10.866C169.644 9.50773 168.557 6.92708 168.557 6.92708C168.557 6.92708 167.403 9.50773 166.859 10.866L164.958 15.0086H172.157L170.255 10.866Z" fill="#911938"/>
<path d="M186.893 12.6317C188.184 12.7675 190.425 13.6503 190.425 16.3668C190.425 18.8795 188.659 20.2378 185.671 20.2378H180.442V5.97632H185.06C187.708 5.97632 189.27 7.33455 189.27 9.3719C189.27 11.4093 188.048 12.36 186.893 12.6317ZM185.196 12.36C187.097 12.36 188.523 11.4093 188.523 9.50773C188.523 7.80993 187.165 6.72335 184.992 6.72335H181.257V12.36H185.196ZM185.739 19.5587C188.048 19.5587 189.678 18.54 189.678 16.4347C189.678 14.2615 187.776 13.107 185.739 13.107H181.325V19.6266H185.739V19.5587Z" fill="#911938"/>
<path d="M195.722 16.2309C195.79 18.7436 197.827 19.7623 200.34 19.7623C202.785 19.7623 204.279 18.7436 204.279 16.6384C204.279 13.7861 201.562 13.5823 199.796 13.1749C197.827 12.7674 195.314 12.1562 195.314 9.37182C195.314 7.06282 196.944 5.70459 199.864 5.70459C202.377 5.70459 204.279 6.79118 204.822 9.16809L204.075 9.37182C203.667 7.53821 202.377 6.45162 199.864 6.45162C197.352 6.45162 196.129 7.53821 196.129 9.30391C196.129 11.545 198.099 12.0883 200.204 12.4958C202.377 12.9032 205.094 13.4465 205.094 16.6384C205.094 19.219 203.328 20.5093 200.272 20.5093C197.963 20.5093 195.178 19.6944 194.907 16.4346L195.722 16.2309Z" fill="#911938"/>
<path d="M61.1882 34.2954H58.4039V36.8081H57.521V31.1035H58.4039V33.4125H61.2561V31.1035H62.139V36.8081H61.2561V34.2954H61.1882Z" fill="#911938"/>
<path d="M67.0965 31.0356C68.7943 31.0356 70.0846 32.2581 70.0846 34.0238C70.0846 35.7895 68.7943 37.0119 67.0965 37.0119C65.3987 37.0119 64.1084 35.7895 64.1084 34.0238C64.1084 32.1901 65.3987 31.0356 67.0965 31.0356ZM67.0965 36.0611C68.251 36.0611 69.2018 35.2462 69.2018 33.9558C69.2018 32.6655 68.3189 31.8506 67.0965 31.8506C65.942 31.8506 65.0592 32.6655 65.0592 33.9558C64.9913 35.2462 65.942 36.0611 67.0965 36.0611Z" fill="#911938"/>
<path d="M76.6043 34.635C76.6043 33.6163 76.6043 32.5976 76.6043 32.5976C76.6043 32.5976 76.3326 33.073 75.9252 33.82L75.0423 35.382H74.499L73.6162 33.82C73.1408 33.0051 72.9371 32.5297 72.9371 32.5297C72.9371 32.5297 72.9371 33.5484 72.9371 34.5671V36.7402H72.0542V31.0356H73.005L74.7707 34.2275L76.5364 31.0356H77.4871V36.7402H76.6043V34.635Z" fill="#911938"/>
<path d="M79.7959 31.1035H83.7348V31.9185H80.6788V33.4125H82.9877V34.2275H80.6788V35.9932H83.7348V36.8081H79.7959V31.1035Z" fill="#911938"/>
<path d="M86.3833 35.1104C86.4512 35.7895 87.0625 36.1291 87.8095 36.1291C88.5565 36.1291 88.964 35.8574 88.964 35.2462C88.964 34.4313 88.0811 34.4313 87.402 34.2275C86.5871 34.0238 85.6363 33.7522 85.6363 32.5977C85.6363 31.579 86.4513 30.9678 87.6737 30.9678C88.7603 30.9678 89.5752 31.4432 89.8468 32.3939L88.964 32.5977C88.8282 32.0544 88.4207 31.7148 87.6737 31.7148C86.9266 31.7148 86.5871 31.9865 86.5871 32.5297C86.5871 33.2089 87.2662 33.3447 88.0811 33.4805C88.8961 33.6163 89.9147 33.9559 89.9147 35.1783C89.9147 36.2649 89.1677 36.8082 87.8095 36.8082C86.8587 36.8082 85.7042 36.4686 85.5005 35.2462L86.3833 35.1104Z" fill="#911938"/>
<path d="M91.8843 31.1035H95.8232V31.9185H92.7671V33.4125H95.0761V34.2275H92.7671V35.9932H95.8232V36.8081H91.8843V31.1035Z" fill="#911938"/>
<path d="M99.8981 34.7028C99.7623 34.7028 99.5585 34.7028 99.4906 34.7028H98.8794V36.8081H97.9966V31.1035H99.8981C101.256 31.1035 102.071 31.7826 102.071 32.9371C102.071 33.82 101.596 34.2954 100.849 34.4991L102.207 36.8081H101.121L99.8981 34.7028ZM99.8981 33.9558C100.645 33.9558 101.121 33.6842 101.121 32.9371C101.121 32.258 100.645 31.9185 99.8981 31.9185H98.8794V33.9558H99.8981Z" fill="#911938"/>
<path d="M105.67 36.8081L103.497 31.1035H104.516L105.602 34.0237C106.01 35.1782 106.281 35.8573 106.281 35.8573C106.281 35.8573 106.553 35.1782 106.961 34.0916L108.047 31.1714H108.998L106.825 36.876H105.67V36.8081Z" fill="#911938"/>
<path d="M110.832 31.1035H111.714V36.8081H110.832V31.1035Z" fill="#911938"/>
<path d="M119.321 35.1783C118.913 36.2648 117.827 36.944 116.604 36.944C114.906 36.944 113.684 35.7895 113.684 33.9558C113.684 32.1901 114.906 31.0356 116.604 31.0356C117.895 31.0356 118.845 31.7827 119.253 32.5976L118.37 32.8013C118.166 32.3939 117.623 31.8506 116.604 31.8506C115.382 31.8506 114.567 32.6655 114.567 33.9558C114.567 35.2462 115.45 36.0611 116.536 36.0611C117.419 36.0611 118.098 35.5857 118.37 34.9066L119.321 35.1783Z" fill="#911938"/>
<path d="M121.358 31.1035H125.297V31.9185H122.241V33.4125H124.55V34.2275H122.241V35.9932H125.297V36.8081H121.358V31.1035Z" fill="#911938"/>
<path d="M127.945 35.1104C128.013 35.7895 128.624 36.1291 129.371 36.1291C130.119 36.1291 130.526 35.8574 130.526 35.2462C130.526 34.4313 129.643 34.4313 128.964 34.2275C128.149 34.0238 127.198 33.7522 127.198 32.5977C127.198 31.579 128.013 30.9678 129.236 30.9678C130.322 30.9678 131.137 31.4432 131.409 32.3939L130.526 32.5977C130.39 32.0544 129.983 31.7148 129.236 31.7148C128.489 31.7148 128.149 31.9865 128.149 32.5297C128.149 33.2089 128.828 33.3447 129.643 33.4805C130.458 33.6163 131.477 33.9559 131.477 35.1783C131.477 36.2649 130.73 36.8082 129.371 36.8082C128.421 36.8082 127.266 36.4686 127.062 35.2462L127.945 35.1104Z" fill="#911938"/>
<path d="M142.003 35.1783C141.596 36.2648 140.509 36.944 139.287 36.944C137.589 36.944 136.367 35.7895 136.367 33.9558C136.367 32.1901 137.589 31.0356 139.287 31.0356C140.577 31.0356 141.528 31.7827 141.935 32.5976L141.053 32.8013C140.849 32.3939 140.306 31.8506 139.287 31.8506C138.064 31.8506 137.25 32.6655 137.25 33.9558C137.25 35.2462 138.132 36.0611 139.219 36.0611C140.102 36.0611 140.781 35.5857 141.053 34.9066L142.003 35.1783Z" fill="#911938"/>
<path d="M144.041 31.1035H147.979V31.9185H144.923V33.4125H147.232V34.2275H144.923V35.9932H147.979V36.8081H144.041V31.1035Z" fill="#911938"/>
<path d="M150.967 32.5976C150.967 32.5976 150.967 33.2767 150.967 34.0237V36.876H150.084V31.1714H150.967L154.023 35.314C154.023 35.314 154.023 34.6349 154.023 33.9558V31.1035H154.906V36.8081H154.023L150.967 32.5976Z" fill="#911938"/>
<path d="M159.728 31.9866V36.8762H158.845V31.9866H156.944V31.1716H161.63V31.9866H159.728Z" fill="#911938"/>
<path d="M163.599 31.1035H167.538V31.9185H164.482V33.4125H166.791V34.2275H164.482V35.9932H167.538V36.8081H163.599V31.1035Z" fill="#911938"/>
<path d="M171.545 34.7028C171.409 34.7028 171.205 34.7028 171.137 34.7028H170.526V36.8081H169.643V31.1035H171.545C172.903 31.1035 173.718 31.7826 173.718 32.9371C173.718 33.82 173.242 34.2954 172.495 34.4991L173.854 36.8081H172.767L171.545 34.7028ZM171.612 33.9558C172.36 33.9558 172.835 33.6842 172.835 32.9371C172.835 32.258 172.36 31.9185 171.612 31.9185H170.594V33.9558H171.612Z" fill="#911938"/>
<path d="M179.898 31.9864V33.6163H182.275V34.4312H179.898V36.8081H179.015V31.1035H182.886V31.9185H179.898V31.9864Z" fill="#911938"/>
<path d="M187.436 31.0356C189.134 31.0356 190.424 32.2581 190.424 34.0238C190.424 35.7895 189.134 37.0119 187.436 37.0119C185.739 37.0119 184.448 35.7895 184.448 34.0238C184.448 32.1901 185.739 31.0356 187.436 31.0356ZM187.436 36.0611C188.591 36.0611 189.542 35.2462 189.542 33.9558C189.542 32.6655 188.659 31.8506 187.436 31.8506C186.282 31.8506 185.399 32.6655 185.399 33.9558C185.331 35.2462 186.214 36.0611 187.436 36.0611Z" fill="#911938"/>
<path d="M194.295 34.7028C194.159 34.7028 193.956 34.7028 193.888 34.7028H193.276V36.8081H192.394V31.1035H194.295C195.653 31.1035 196.468 31.7826 196.468 32.9371C196.468 33.82 195.993 34.2954 195.246 34.4991L196.604 36.8081H195.518L194.295 34.7028ZM194.363 33.9558C195.11 33.9558 195.585 33.6842 195.585 32.9371C195.585 32.258 195.11 31.9185 194.363 31.9185H193.344V33.9558H194.363Z" fill="#911938"/>
<path d="M201.698 31.1035H202.581V36.8081H201.698V31.1035Z" fill="#911938"/>
<path d="M205.772 32.5976C205.772 32.5976 205.772 33.2767 205.772 34.0237V36.876H204.89V31.1714H205.772L208.829 35.314C208.829 35.314 208.829 34.6349 208.829 33.9558V31.1035H209.711V36.8081H208.829L205.772 32.5976Z" fill="#911938"/>
<path d="M212.903 32.5976C212.903 32.5976 212.903 33.2767 212.903 34.0237V36.876H212.02V31.1714H212.903L215.959 35.314C215.959 35.314 215.959 34.6349 215.959 33.9558V31.1035H216.842V36.8081H215.959L212.903 32.5976Z" fill="#911938"/>
<path d="M221.868 31.0356C223.565 31.0356 224.856 32.2581 224.856 34.0238C224.856 35.7895 223.565 37.0119 221.868 37.0119C220.17 37.0119 218.879 35.7895 218.879 34.0238C218.879 32.1901 220.17 31.0356 221.868 31.0356ZM221.868 36.0611C223.022 36.0611 223.973 35.2462 223.973 33.9558C223.973 32.6655 223.09 31.8506 221.868 31.8506C220.713 31.8506 219.83 32.6655 219.83 33.9558C219.762 35.2462 220.645 36.0611 221.868 36.0611Z" fill="#911938"/>
<path d="M228.319 36.8081L226.146 31.1035H227.165L228.251 34.0237C228.659 35.1782 228.93 35.8573 228.93 35.8573C228.93 35.8573 229.202 35.1782 229.609 34.0916L230.696 31.1714H231.647L229.474 36.876H228.319V36.8081Z" fill="#911938"/>
<path d="M233.752 35.518L233.209 36.8762H232.258L234.635 31.1716H235.653L238.03 36.8762H237.012L236.468 35.518H233.752ZM235.585 33.2769C235.382 32.8015 235.11 32.1224 235.11 32.1224C235.11 32.1224 234.838 32.8015 234.635 33.2769L234.091 34.6351H236.197L235.585 33.2769Z" fill="#911938"/>
<path d="M241.426 31.9866V36.8762H240.543V31.9866H238.642V31.1716H243.328V31.9866H241.426Z" fill="#911938"/>
<path d="M245.297 31.1035H246.18V36.8081H245.297V31.1035Z" fill="#911938"/>
<path d="M251.205 31.0356C252.903 31.0356 254.193 32.2581 254.193 34.0238C254.193 35.7895 252.903 37.0119 251.205 37.0119C249.508 37.0119 248.217 35.7895 248.217 34.0238C248.217 32.1901 249.508 31.0356 251.205 31.0356ZM251.205 36.0611C252.36 36.0611 253.311 35.2462 253.311 33.9558C253.311 32.6655 252.428 31.8506 251.205 31.8506C250.051 31.8506 249.168 32.6655 249.168 33.9558C249.1 35.2462 249.983 36.0611 251.205 36.0611Z" fill="#911938"/>
<path d="M257.045 32.5976C257.045 32.5976 257.045 33.2767 257.045 34.0237V36.876H256.163V31.1714H257.045L260.101 35.314C260.101 35.314 260.101 34.6349 260.101 33.9558V31.1035H260.984V36.8081H260.101L257.045 32.5976Z" fill="#911938"/>
<path d="M39.8642 28.8625C40.5433 26.8251 40.8829 24.7199 40.8829 22.5467C40.8829 12.292 33.2767 3.59932 23.09 2.24109C22.8183 0.950764 21.6638 0 20.3056 0C18.9474 0 17.7929 0.950764 17.5212 2.309C7.5382 3.73514 0 12.3599 0 22.4788C0 27.1647 1.56197 31.7148 4.48217 35.3141C4.0747 35.7895 3.87097 36.4686 3.87097 37.0798C3.87097 38.6418 5.16129 39.9321 6.72326 39.9321C7.5382 39.9321 8.28523 39.5925 8.89643 38.9813C9.10017 38.7097 9.3039 38.438 9.43973 38.1664C9.57555 37.8268 9.64346 37.4873 9.64346 37.1477C9.64346 35.9932 8.89643 34.9066 7.80985 34.4991V23.7012C7.80985 22.6146 7.80985 20.8489 7.74194 19.3548C8.21732 20.2377 8.76061 21.3243 9.43973 22.5467L13.107 28.9983H14.1256L17.8608 22.4788C18.6078 21.1205 19.1511 20.1698 19.4907 19.4907V32.3939L35.5857 32.4618C35.7895 32.8014 35.9932 33.1409 36.3328 33.4126C36.6044 33.6163 36.8761 33.82 37.1477 33.8879C37.4873 34.0238 37.8268 34.0917 38.1664 34.0917C39.7284 34.0917 41.0187 32.8014 41.0187 31.2394C41.0187 30.2886 40.6112 29.4058 39.8642 28.8625ZM19.0153 2.58065C19.1511 1.96944 19.6944 1.56197 20.3056 1.56197C20.9168 1.56197 21.4601 1.96944 21.5959 2.58065C21.5959 2.71647 21.6638 2.78438 21.6638 2.85229C21.6638 2.98812 21.6638 3.12394 21.5959 3.25976C21.4601 3.80306 20.9168 4.21053 20.3735 4.21053C19.8302 4.21053 19.2869 3.87097 19.1511 3.32767C19.0153 3.12394 19.0153 2.98812 19.0153 2.85229C19.0153 2.78438 19.0153 2.64856 19.0153 2.58065ZM8.08149 37.0798C8.08149 37.1477 8.08149 37.2835 8.01358 37.3514C7.94567 37.5552 7.87776 37.7589 7.67402 37.9627C7.40238 38.2343 7.06282 38.3701 6.72326 38.3701C5.97623 38.3701 5.43294 37.7589 5.43294 37.0798C5.43294 36.7402 5.56876 36.4007 5.7725 36.1969C5.90832 35.9932 6.11205 35.9253 6.3837 35.8574C6.51952 35.7895 6.65535 35.7895 6.72326 35.7895C7.06282 35.7895 7.40238 35.9253 7.67402 36.1969C7.94567 36.4007 8.08149 36.7402 8.08149 37.0798ZM36.129 29.1341C35.6537 29.6095 35.382 30.1528 35.3141 30.8319L21.0526 30.764V16.2309H19.6265L13.6503 26.893L7.67402 16.2309H6.24788L6.17997 34.2954C6.04414 34.2954 5.90832 34.3633 5.7725 34.4312C3.05603 31.0357 1.56197 26.8251 1.56197 22.4788C1.56197 13.1749 8.48896 5.2292 17.657 3.87097C18.0645 4.95755 19.1511 5.7725 20.3056 5.7725C21.528 5.7725 22.6146 5.02547 23.0221 3.87097C32.3939 5.16129 39.3888 13.1749 39.3209 22.6146C39.3209 24.584 38.9813 26.4856 38.438 28.3871C38.3701 28.3871 38.2343 28.3871 38.1664 28.3871C37.4194 28.3192 36.6723 28.5908 36.129 29.1341ZM39.1171 32.1222C38.8455 32.3939 38.5739 32.5297 38.1664 32.5297C38.0306 32.5297 37.9627 32.5297 37.8268 32.4618C37.6231 32.3939 37.4194 32.2581 37.2156 32.1222C36.944 31.8506 36.8082 31.5789 36.8082 31.1715C36.8082 30.4244 37.4194 29.8812 38.0985 29.8812C38.1664 29.8812 38.2343 29.8812 38.2343 29.8812C38.438 29.8812 38.7097 30.017 38.8455 30.1528C39.1851 30.4244 39.3888 30.764 39.3888 31.1715C39.4567 31.511 39.3209 31.8506 39.1171 32.1222Z" fill="#911938"/>
</g>
<defs>
<clipPath id="clip0">
<rect width="260.985" height="40" fill="white"/>
</clipPath>
</defs>
</svg>
